<svg width="24" height="25" viewBox="0 0 24 25" fill="none" xmlns="http://www.w3.org/2000/svg">
<path d="M20.07 6.85004H15V8.26004H20.09L20.07 6.85004ZM19 16.55C18.6154 16.8049 18.1612 16.9342 17.7 16.92C17.3947 16.9519 17.0862 16.9203 16.7937 16.8274C16.5011 16.7345 16.2309 16.5822 16 16.38C15.573 15.8959 15.3507 15.2649 15.38 14.62H22C22.0477 13.9486 21.9904 13.2738 21.83 12.62C21.6749 11.9981 21.4034 11.4111 21.03 10.89C20.6541 10.3846 20.1686 9.97095 19.61 9.68004C18.9884 9.37358 18.3029 9.21933 17.61 9.23004C16.9583 9.22526 16.3123 9.35107 15.71 9.60004C15.1585 9.83253 14.6588 10.1725 14.24 10.6C13.8224 11.0362 13.499 11.5536 13.29 12.12C13.0657 12.7316 12.9539 13.3787 12.96 14.03C12.9497 14.6906 13.0581 15.3477 13.28 15.97C13.4685 16.5336 13.7677 17.0538 14.16 17.5C14.5659 17.9382 15.0648 18.2799 15.62 18.5C16.2391 18.7359 16.8976 18.8513 17.56 18.84C18.4894 18.869 19.407 18.6257 20.2 18.14C21.0009 17.5709 21.5775 16.7396 21.83 15.79H19.62C19.5017 16.1042 19.284 16.371 19 16.55ZM15.57 12.43C15.6478 12.1807 15.777 11.9505 15.9493 11.7541C16.1215 11.5578 16.3329 11.3997 16.57 11.29C16.884 11.1487 17.2258 11.0803 17.57 11.09C17.8186 11.0688 18.0689 11.1016 18.3036 11.1862C18.5384 11.2708 18.7521 11.4051 18.93 11.58C19.2698 11.996 19.4878 12.4978 19.56 13.03H15.41C15.4262 12.8268 15.463 12.6258 15.52 12.43H15.57ZM10.28 11.95C10.789 11.7381 11.2312 11.3926 11.56 10.95C11.8622 10.48 12.0124 9.92837 11.99 9.37004C12.0096 8.86088 11.9103 8.35415 11.7 7.89004C11.5233 7.48795 11.2397 7.14206 10.88 6.89004C10.4987 6.62801 10.0656 6.4507 9.61 6.37004C9.07082 6.25695 8.52087 6.2033 7.97 6.21004H2V18.79H8.1C8.65669 18.7904 9.21116 18.7199 9.75 18.58C10.2607 18.4479 10.7446 18.228 11.18 17.93C11.6017 17.6378 11.9452 17.2463 12.18 16.79C12.4399 16.2798 12.5672 15.7124 12.55 15.14C12.5689 14.4308 12.37 13.7328 11.98 13.14C11.5606 12.544 10.9385 12.121 10.23 11.95H10.28ZM4.77 8.36004H7.36C7.59795 8.35974 7.83548 8.37982 8.07 8.42004C8.28595 8.45204 8.49334 8.52683 8.68 8.64004C8.86035 8.74205 9.00648 8.89514 9.1 9.08004C9.21582 9.30175 9.27102 9.55013 9.26 9.80004C9.27863 10.0153 9.24572 10.2319 9.16399 10.4318C9.08225 10.6318 8.95405 10.8095 8.79 10.95C8.43212 11.1961 8.00388 11.3189 7.57 11.3H4.77V8.36004ZM9.61 15.8C9.50726 16.0038 9.35189 16.1765 9.16 16.3C8.9603 16.4242 8.74027 16.5123 8.51 16.56C8.25406 16.6173 7.99224 16.6442 7.73 16.64H4.73V13.19H7.73C8.24482 13.1675 8.75322 13.3112 9.18 13.6C9.37281 13.7731 9.52217 13.9891 9.61599 14.2306C9.7098 14.472 9.74543 14.7322 9.72 14.99C9.74704 15.2649 9.70936 15.5423 9.61 15.8Z" fill="#111111"/>
</svg>
