<svg width="24" height="25" viewBox="0 0 24 25" fill="none" xmlns="http://www.w3.org/2000/svg">
<path d="M11.991 1.49996C10.5577 1.44774 9.12877 1.68654 7.79036 2.20194C6.45196 2.71734 5.23189 3.49863 4.20383 4.49866C3.17577 5.49868 2.36104 6.69668 1.80884 8.02033C1.25664 9.34397 0.978429 10.7658 0.991001 12.2C0.972073 13.6779 1.26654 15.143 1.855 16.4988C2.44346 17.8547 3.31255 19.0704 4.405 20.066L4.457 21.756C4.47155 22.2234 4.66746 22.6668 5.00325 22.9924C5.33903 23.3179 5.78833 23.4999 6.256 23.5C6.50587 23.4997 6.753 23.4479 6.982 23.348L8.903 22.5C9.91036 22.768 10.9486 22.9025 11.991 22.9C13.4243 22.9522 14.8533 22.7134 16.1918 22.198C17.5302 21.6826 18.7504 20.9013 19.7785 19.9013C20.8067 18.9013 21.6215 17.7033 22.1738 16.3797C22.7261 15.056 23.0044 13.6342 22.992 12.2C23.0044 10.7658 22.7261 9.34408 22.1739 8.0205C21.6216 6.69692 20.8069 5.49897 19.7789 4.49898C18.7508 3.49898 17.5308 2.71768 16.1925 2.20223C14.8541 1.68679 13.4252 1.44789 11.992 1.49996H11.991ZM11.991 20.9C11.1009 20.9027 10.2145 20.785 9.356 20.55C8.95855 20.4429 8.5364 20.4754 8.16 20.642L6.446 21.398L6.401 19.905C6.39119 19.663 6.33295 19.4256 6.22971 19.2065C6.12648 18.9875 5.98036 18.7915 5.8 18.63C4.90028 17.8205 4.18407 16.8279 3.69942 15.7189C3.21477 14.6099 2.97289 13.4101 2.99 12.2C2.98369 11.0302 3.21446 9.87122 3.66836 8.79306C4.12227 7.7149 4.7899 6.73988 5.63098 5.92684C6.47206 5.11379 7.46915 4.47958 8.56207 4.06247C9.65499 3.64537 10.8211 3.45401 11.99 3.49996C13.1573 3.46037 14.3207 3.65611 15.4108 4.07551C16.5009 4.4949 17.4954 5.12938 18.3352 5.94116C19.1749 6.75294 19.8428 7.72541 20.2989 8.80067C20.755 9.87592 20.99 11.032 20.99 12.2C20.99 13.3679 20.755 14.524 20.2989 15.5992C19.8428 16.6745 19.1749 17.647 18.3352 18.4587C17.4954 19.2705 16.5009 19.905 15.4108 20.3244C14.3207 20.7438 13.1573 20.9395 11.99 20.9H11.991ZM15.726 9.08496L13.413 11.84L10.066 9.78396C9.86176 9.65824 9.61909 9.61028 9.38238 9.64884C9.14568 9.6874 8.93077 9.80992 8.777 9.99396L5.726 13.63C5.63464 13.7294 5.56437 13.8464 5.51943 13.9737C5.4745 14.1011 5.45583 14.2362 5.46455 14.371C5.47327 14.5058 5.50921 14.6374 5.57018 14.7579C5.63116 14.8784 5.71591 14.9853 5.81933 15.0722C5.92275 15.159 6.0427 15.2241 6.17193 15.2633C6.30116 15.3025 6.437 15.3152 6.57126 15.3005C6.70551 15.2858 6.8354 15.2441 6.95309 15.1778C7.07077 15.1115 7.17381 15.0221 7.256 14.915L9.755 11.94L13.102 13.996C13.3062 14.1217 13.5489 14.1696 13.7856 14.1311C14.0223 14.0925 14.2372 13.97 14.391 13.786L17.257 10.371C17.3451 10.2709 17.4124 10.1543 17.4548 10.0279C17.4972 9.90152 17.5139 9.76792 17.5039 9.63498C17.4939 9.50204 17.4575 9.37244 17.3967 9.25379C17.3359 9.13515 17.252 9.02985 17.1499 8.94411C17.0478 8.85836 16.9296 8.7939 16.8023 8.75449C16.6749 8.71509 16.541 8.70156 16.4083 8.71468C16.2756 8.7278 16.1469 8.76732 16.0298 8.83091C15.9126 8.8945 15.8093 8.98087 15.726 9.08496Z" fill="#111111"/>
</svg>
