<svg width="24" height="25" viewBox="0 0 24 25" fill="none" xmlns="http://www.w3.org/2000/svg">
<path d="M10.07 21.003C10.0699 20.8565 10.0376 20.7118 9.97541 20.5791C9.91321 20.4465 9.82262 20.3291 9.71005 20.2353C9.59748 20.1416 9.46568 20.0737 9.32397 20.0365C9.18227 19.9993 9.03411 19.9936 8.89 20.02C7.58 20.26 5.927 20.296 5.488 19.062C5.10476 18.106 4.46999 17.2715 3.651 16.647C3.59237 16.615 3.5365 16.5783 3.484 16.537C3.41228 16.3481 3.28503 16.1854 3.11902 16.0703C2.95301 15.9551 2.75602 15.893 2.554 15.892H2.549C2.28464 15.892 2.03104 15.9967 1.84365 16.1831C1.65626 16.3696 1.55032 16.6227 1.549 16.887C1.545 17.702 2.359 18.225 2.69 18.401C3.07998 18.7929 3.39335 19.2541 3.614 19.761C3.979 20.784 5.037 22.337 8.08 22.137L8.083 22.235L8.087 22.503C8.087 22.7682 8.19235 23.0226 8.37989 23.2101C8.56742 23.3976 8.82178 23.503 9.087 23.503C9.35221 23.503 9.60657 23.3976 9.7941 23.2101C9.98164 23.0226 10.087 22.7682 10.087 22.503L10.082 22.185C10.077 21.995 10.07 21.721 10.07 21.003ZM20.737 5.87701C20.7726 5.73826 20.8026 5.59815 20.827 5.45701C20.9888 4.34261 20.8479 3.20522 20.419 2.16401C20.3649 2.02836 20.2819 1.90616 20.1757 1.80598C20.0694 1.70579 19.9426 1.63003 19.804 1.58401C19.448 1.46401 18.134 1.22701 15.62 2.83401C13.5305 2.34233 11.3555 2.34233 9.266 2.83401C6.762 1.25001 5.455 1.46601 5.102 1.57901C4.95991 1.6231 4.82949 1.69844 4.72031 1.79949C4.61112 1.90055 4.52594 2.02475 4.471 2.16301C4.03295 3.22429 3.89325 4.3851 4.067 5.52001C4.092 5.64701 4.118 5.76601 4.146 5.87401C3.3172 6.97764 2.87571 8.3239 2.89 9.70401C2.8875 10.0116 2.90186 10.319 2.933 10.625C3.267 15.228 6.267 16.609 8.357 17.084C8.31162 17.2155 8.27225 17.349 8.239 17.484C8.17548 17.7415 8.21686 18.0137 8.35404 18.2408C8.49122 18.4678 8.71297 18.631 8.9705 18.6945C9.22802 18.758 9.50023 18.7166 9.72724 18.5795C9.95426 18.4423 10.1175 18.2205 10.181 17.963C10.2446 17.6298 10.4078 17.3236 10.649 17.085C10.7945 16.9573 10.8998 16.7901 10.9521 16.6037C11.0044 16.4172 11.0014 16.2197 10.9436 16.0349C10.8858 15.8501 10.7756 15.6861 10.6264 15.5628C10.4772 15.4394 10.2953 15.362 10.103 15.34C6.64899 14.945 5.149 13.538 4.923 10.441C4.89825 10.1958 4.88723 9.94943 4.89 9.70301C4.87411 8.71956 5.19919 7.76094 5.81 6.99001C5.8711 6.9098 5.93618 6.83271 6.005 6.75901C6.12752 6.62195 6.2099 6.45376 6.24307 6.27293C6.27623 6.0921 6.25891 5.90563 6.193 5.73401C6.12566 5.55374 6.07381 5.36807 6.038 5.17901C5.95657 4.64045 5.98343 4.09105 6.117 3.56301C6.98615 3.80858 7.80413 4.20826 8.53199 4.74301C8.65228 4.82311 8.78836 4.87643 8.93104 4.89938C9.07372 4.92232 9.21966 4.91435 9.359 4.87601C11.3801 4.32747 13.511 4.32782 15.532 4.87701C15.6721 4.91535 15.8188 4.92287 15.9621 4.89905C16.1054 4.87522 16.2418 4.82062 16.362 4.73901C17.0867 4.20222 17.9015 3.79922 18.768 3.54901C18.9006 4.06415 18.9302 4.60041 18.855 5.12701C18.8187 5.3344 18.7621 5.53772 18.686 5.73401C18.6201 5.90563 18.6028 6.0921 18.6359 6.27293C18.6691 6.45376 18.7515 6.62195 18.874 6.75901C18.952 6.84601 19.029 6.93901 19.098 7.02701C19.7044 7.78498 20.0238 8.73263 20 9.70301C20.0017 9.96251 19.989 10.2219 19.962 10.48C19.742 13.536 18.237 14.944 14.767 15.34C14.5744 15.3619 14.3924 15.4392 14.2429 15.5626C14.0935 15.686 13.9832 15.8502 13.9253 16.0352C13.8675 16.2201 13.8646 16.4179 13.9171 16.6045C13.9696 16.7911 14.0752 16.9583 14.221 17.086C14.4695 17.331 14.6329 17.6493 14.687 17.994C14.7549 18.2619 14.7862 18.5377 14.78 18.814V21.147C14.77 21.795 14.77 22.28 14.77 22.503C14.77 22.7682 14.8754 23.0226 15.0629 23.2101C15.2504 23.3976 15.5048 23.503 15.77 23.503C16.0352 23.503 16.2896 23.3976 16.4771 23.2101C16.6646 23.0226 16.77 22.7682 16.77 22.503C16.77 22.286 16.77 21.811 16.78 21.163V18.813C16.7879 18.371 16.7358 17.93 16.625 17.502C16.5934 17.3615 16.5547 17.2226 16.509 17.086C18.0302 16.8331 19.4123 16.0487 20.4094 14.8724C21.4065 13.696 21.9538 12.2041 21.954 10.662C21.987 10.3434 22.0023 10.0233 22 9.70301C22.0221 8.3218 21.5771 6.9736 20.737 5.87701Z" fill="#111111"/>
</svg>
