<svg width="32" height="33" viewBox="0 0 32 33" fill="none" xmlns="http://www.w3.org/2000/svg">
<path d="M5.33337 8.50008C5.33337 8.14646 5.47385 7.80732 5.7239 7.55727C5.97395 7.30722 6.31309 7.16675 6.66671 7.16675H25.3334C25.687 7.16675 26.0261 7.30722 26.2762 7.55727C26.5262 7.80732 26.6667 8.14646 26.6667 8.50008C26.6667 8.8537 26.5262 9.19284 26.2762 9.44289C26.0261 9.69294 25.687 9.83341 25.3334 9.83341H6.66671C6.31309 9.83341 5.97395 9.69294 5.7239 9.44289C5.47385 9.19284 5.33337 8.8537 5.33337 8.50008Z" fill="#111111"/>
<path d="M5.33337 24.5001C5.33337 24.1465 5.47385 23.8073 5.7239 23.5573C5.97395 23.3072 6.31309 23.1667 6.66671 23.1667H25.3334C25.687 23.1667 26.0261 23.3072 26.2762 23.5573C26.5262 23.8073 26.6667 24.1465 26.6667 24.5001C26.6667 24.8537 26.5262 25.1928 26.2762 25.4429C26.0261 25.6929 25.687 25.8334 25.3334 25.8334H6.66671C6.31309 25.8334 5.97395 25.6929 5.7239 25.4429C5.47385 25.1928 5.33337 24.8537 5.33337 24.5001Z" fill="#111111"/>
<path d="M14.6667 15.1667C14.3131 15.1667 13.9739 15.3072 13.7239 15.5573C13.4739 15.8073 13.3334 16.1465 13.3334 16.5001C13.3334 16.8537 13.4739 17.1928 13.7239 17.4429C13.9739 17.6929 14.3131 17.8334 14.6667 17.8334H25.3334C25.687 17.8334 26.0261 17.6929 26.2762 17.4429C26.5262 17.1928 26.6667 16.8537 26.6667 16.5001C26.6667 16.1465 26.5262 15.8073 26.2762 15.5573C26.0261 15.3072 25.687 15.1667 25.3334 15.1667H14.6667Z" fill="#111111"/>
</svg>
