<svg width="24" height="25" viewBox="0 0 24 25" fill="none" xmlns="http://www.w3.org/2000/svg">
<path d="M15.14 12.313C14.7393 12.0557 14.3044 11.8561 13.848 11.72C13.568 11.635 13.258 11.552 12.938 11.473C12.658 11.395 12.326 11.315 11.916 11.225C11.4267 11.1224 10.9465 10.9806 10.48 10.801C10.2396 10.7076 10.0274 10.5536 9.86401 10.354C9.74446 10.1907 9.68766 9.98977 9.70401 9.78801C9.70365 9.57168 9.77583 9.36148 9.90901 9.19101C10.0954 8.97267 10.3372 8.80859 10.609 8.71601C11.0661 8.55894 11.5479 8.48577 12.031 8.50001C12.4049 8.49381 12.7776 8.54301 13.137 8.64601C13.3754 8.71308 13.5999 8.82212 13.8 8.96801C13.9294 9.06036 14.0398 9.17683 14.125 9.31101C14.1868 9.42755 14.2709 9.53071 14.3727 9.61458C14.4745 9.69845 14.5919 9.76135 14.718 9.79968C14.8442 9.838 14.9767 9.85099 15.108 9.83789C15.2392 9.82479 15.3665 9.78587 15.4827 9.72336C15.5988 9.66084 15.7014 9.57598 15.7846 9.47365C15.8678 9.37132 15.9299 9.25355 15.9674 9.12711C16.0049 9.00068 16.017 8.86807 16.003 8.73693C15.9891 8.6058 15.9493 8.47872 15.886 8.36301C15.6751 7.99003 15.3903 7.66404 15.049 7.40501C14.6547 7.10208 14.2074 6.87522 13.73 6.73601C13.1789 6.5732 12.6066 6.49366 12.032 6.50001C11.3016 6.48429 10.5745 6.60293 9.88701 6.85001C9.26524 7.07636 8.71905 7.47189 8.31001 7.99201C7.91824 8.50919 7.70615 9.1402 7.70601 9.78901C7.68979 10.4349 7.89439 11.0671 8.28601 11.581C8.6641 12.0572 9.1597 12.4267 9.72401 12.653C10.1504 12.8171 10.587 12.9534 11.031 13.061C11.039 13.064 11.045 13.071 11.053 13.073C11.245 13.131 11.551 13.208 11.993 13.303C12.166 13.341 12.328 13.382 12.49 13.423C12.506 13.427 12.529 13.432 12.544 13.437L12.562 13.439C12.81 13.503 13.049 13.568 13.268 13.635C13.5371 13.7137 13.7939 13.8295 14.031 13.979C14.1789 14.0719 14.3032 14.1979 14.394 14.347C14.4819 14.529 14.5225 14.7302 14.512 14.932C14.5259 15.1932 14.4504 15.4514 14.298 15.664C14.0922 15.9318 13.8139 16.1349 13.496 16.249C13.0223 16.4319 12.5166 16.5176 12.009 16.501C11.4221 16.5236 10.8382 16.4056 10.306 16.157C10.0602 16.0261 9.84907 15.8386 9.69001 15.61C9.57837 15.4637 9.50855 15.2899 9.48801 15.107C9.48801 14.8418 9.38266 14.5874 9.19512 14.3999C9.00758 14.2124 8.75323 14.107 8.48801 14.107C8.2228 14.107 7.96844 14.2124 7.78091 14.3999C7.59337 14.5874 7.48801 14.8418 7.48801 15.107C7.5045 15.6971 7.69824 16.2686 8.04401 16.747C8.38958 17.2447 8.84989 17.6518 9.38601 17.934C10.2017 18.332 11.1017 18.5266 12.009 18.501C12.78 18.5197 13.5468 18.3819 14.263 18.096C14.9288 17.8405 15.5069 17.3986 15.928 16.823C16.3283 16.2623 16.5335 15.5856 16.512 14.897C16.5213 14.3632 16.3921 13.8361 16.137 13.367C15.8906 12.9436 15.5494 12.5831 15.14 12.314V12.313ZM22.361 14.191C22.6306 12.5476 22.5051 10.8636 21.9949 9.27831C21.4846 7.69301 20.6043 6.25197 19.4267 5.07437C18.2491 3.89676 16.808 3.01643 15.2227 2.50617C13.6374 1.99592 11.9534 1.8704 10.31 2.14001C9.09663 1.55823 7.73257 1.36744 6.40612 1.59398C5.07968 1.82052 3.85626 2.45322 2.90474 3.40474C1.95322 4.35626 1.32052 5.57968 1.09398 6.90612C0.867444 8.23257 1.05823 9.59663 1.64001 10.81C1.37063 12.4533 1.49627 14.137 2.00655 15.7221C2.51684 17.3072 3.3971 18.748 4.57456 19.9255C5.75203 21.1029 7.19286 21.9832 8.77793 22.4935C10.363 23.0038 12.0468 23.1294 13.69 22.86C14.9034 23.4418 16.2675 23.6326 17.5939 23.406C18.9203 23.1795 20.1438 22.5468 21.0953 21.5953C22.0468 20.6438 22.6795 19.4203 22.906 18.0939C23.1326 16.7675 22.9418 15.4034 22.36 14.19L22.361 14.191ZM16.5 21.5C15.7412 21.4997 14.9948 21.3078 14.33 20.942C14.1238 20.8284 13.8841 20.7909 13.653 20.836C12.4206 21.0818 11.149 21.051 9.92986 20.7459C8.71077 20.4407 7.57461 19.8687 6.60333 19.0713C5.63206 18.2738 4.84988 17.2707 4.31323 16.1344C3.77658 14.998 3.49883 13.7567 3.50001 12.5C3.50104 11.9447 3.55597 11.3907 3.66401 10.846C3.70925 10.6149 3.67173 10.3752 3.55801 10.169C3.08847 9.31501 2.90886 8.33165 3.0462 7.3668C3.18353 6.40195 3.63039 5.50777 4.31957 4.8187C5.00876 4.12962 5.90302 3.68292 6.86789 3.54574C7.83276 3.40856 8.81609 3.58833 9.67001 4.05801C9.87644 4.17221 10.1166 4.20976 10.348 4.16401C11.5804 3.91837 12.8519 3.94929 14.0709 4.25454C15.2898 4.55979 16.4259 5.13176 17.397 5.9292C18.3682 6.72663 19.1502 7.72966 19.6868 8.86594C20.2234 10.0022 20.5012 11.2434 20.5 12.5C20.499 13.0554 20.4441 13.6093 20.336 14.154C20.2908 14.3851 20.3283 14.6248 20.442 14.831C20.8192 15.5161 21.0113 16.2877 20.9994 17.0697C20.9875 17.8517 20.7719 18.6171 20.3739 19.2903C19.976 19.9636 19.4094 20.5215 18.73 20.909C18.0507 21.2965 17.2821 21.5002 16.5 21.5Z" fill="#111111"/>
</svg>
