<svg width="24" height="25" viewBox="0 0 24 25" fill="none" xmlns="http://www.w3.org/2000/svg">
<path d="M21.951 16.114C21.3338 15.9703 20.7517 15.7039 20.2396 15.3305C19.7275 14.9572 19.2957 14.4847 18.97 13.941C18.8213 13.7213 18.5915 13.5696 18.331 13.5194C18.0705 13.4691 17.8007 13.5244 17.581 13.673C17.3613 13.8217 17.2096 14.0515 17.1593 14.312C17.1091 14.5725 17.1643 14.8423 17.313 15.062C17.9326 16.0076 18.7531 16.8048 19.716 17.397C19.581 17.422 19.435 17.447 19.274 17.472C18.9896 17.5326 18.7319 17.6823 18.5384 17.8994C18.3449 18.1165 18.2256 18.3896 18.198 18.679C17.5316 18.5654 16.8509 18.5641 16.184 18.675C15.4647 18.8338 14.7935 19.1615 14.226 19.631C13.6419 20.1485 12.901 20.4548 12.122 20.501H11.862C11.0821 20.4547 10.3404 20.1476 9.75599 19.629C9.19651 19.1653 8.53567 18.8398 7.82699 18.679C7.15111 18.5714 6.46234 18.5731 5.78699 18.684C5.76064 18.396 5.64365 18.1237 5.45284 17.9063C5.26202 17.6889 5.0072 17.5375 4.72499 17.474C4.57957 17.4516 4.43455 17.4265 4.28999 17.399C4.96975 17.0058 5.57691 16.4988 6.08499 15.9C6.31953 15.6281 6.53188 15.3379 6.71999 15.032C6.86056 14.8071 6.90602 14.5356 6.84639 14.2772C6.78675 14.0188 6.6269 13.7946 6.40199 13.654C6.17709 13.5135 5.90556 13.468 5.64713 13.5276C5.38871 13.5873 5.16456 13.7471 5.02399 13.972C4.89085 14.1887 4.74106 14.3946 4.57599 14.588C3.93678 15.3882 3.03024 15.9308 2.02299 16.116C1.73058 16.1624 1.46489 16.3132 1.27514 16.5405C1.08539 16.7677 0.984436 17.056 0.990993 17.352C0.9906 17.5359 1.02982 17.7177 1.10599 17.885C1.42199 18.601 2.26199 19.053 3.89099 19.359L3.92099 19.489C3.95099 19.607 3.97899 19.728 4.01399 19.837C4.09077 20.1147 4.25836 20.3587 4.49 20.53C4.72165 20.7013 5.004 20.79 5.29199 20.782C5.49572 20.7769 5.69811 20.7477 5.89499 20.695C6.41781 20.5891 6.95492 20.5736 7.48299 20.649C7.89738 20.772 8.28041 20.9827 8.60599 21.267C9.52539 22.0259 10.6696 22.46 11.861 22.502H12.122C13.321 22.4581 14.472 22.0194 15.396 21.254C15.7229 20.9691 16.1093 20.7607 16.527 20.644C16.733 20.608 16.9419 20.5906 17.151 20.592C17.4723 20.5913 17.7927 20.6269 18.106 20.698C18.3092 20.7361 18.5153 20.7576 18.722 20.762C19.0028 20.7696 19.2781 20.6828 19.5038 20.5155C19.7295 20.3481 19.8926 20.11 19.967 19.839C20.005 19.717 20.034 19.599 20.061 19.484L20.093 19.36C21.717 19.055 22.56 18.606 22.86 17.92C22.9362 17.771 22.9795 17.6073 22.987 17.44C23.0118 17.1294 22.919 16.8208 22.7272 16.5753C22.5354 16.3298 22.2584 16.1652 21.951 16.114ZM3.80099 11.648C4.00561 11.6868 4.21722 11.6611 4.40658 11.5744C4.59593 11.4877 4.75367 11.3443 4.85799 11.164C5.25425 11.3658 5.68885 11.481 6.13299 11.502C6.6038 11.5082 7.05815 11.3289 7.39799 11.003C7.5057 10.9028 7.58995 10.78 7.64475 10.6435C7.69954 10.5069 7.72353 10.3599 7.71499 10.213L7.67899 9.61104C7.51516 8.42437 7.56802 7.21783 7.83499 6.05004C8.1725 5.28288 8.7288 4.63232 9.43426 4.17981C10.1397 3.72729 10.963 3.49292 11.801 3.50604L12.189 3.50204C13.0262 3.49088 13.8482 3.72647 14.5524 4.1794C15.2566 4.63234 15.8119 5.28259 16.149 6.04904C16.416 7.21784 16.4689 8.42537 16.305 9.61304L16.295 9.77604L16.268 10.22C16.2624 10.3644 16.2873 10.5082 16.3411 10.6423C16.3949 10.7763 16.4763 10.8976 16.58 10.998C16.9165 11.3226 17.3664 11.5031 17.834 11.501C18.2678 11.4632 18.6897 11.3391 19.075 11.136C19.1531 11.3139 19.2813 11.4652 19.444 11.5714C19.6066 11.6776 19.7967 11.7341 19.991 11.734H20.009C20.274 11.7293 20.5264 11.6195 20.7105 11.4288C20.8947 11.2381 20.9955 10.9821 20.991 10.717C20.965 10.3832 20.8375 10.0653 20.6257 9.80596C20.4139 9.54661 20.1279 9.35822 19.806 9.26604C19.5714 9.16979 19.32 9.12111 19.0665 9.12283C18.8129 9.12454 18.5623 9.17662 18.329 9.27604C18.5044 7.91895 18.3836 6.53998 17.975 5.23404C17.4828 4.11107 16.6704 3.15813 15.6396 2.49435C14.6087 1.83057 13.405 1.48541 12.179 1.50204L11.786 1.50604C10.5631 1.49117 9.36285 1.83705 8.33538 2.50045C7.30791 3.16385 6.49874 4.11535 6.00899 5.23604C5.59711 6.55922 5.47702 7.95597 5.65699 9.33004L5.54599 9.27804C5.30159 9.17925 5.03937 9.13216 4.77586 9.13972C4.51236 9.14728 4.25327 9.20934 4.01493 9.32198C3.77659 9.43462 3.56417 9.5954 3.39104 9.7942C3.21791 9.99299 3.08783 10.2255 3.00899 10.477C2.95941 10.7374 3.01502 11.0068 3.16365 11.2263C3.31227 11.4458 3.54181 11.5974 3.80199 11.648H3.80099Z" fill="#111111"/>
</svg>
