<svg width="24" height="25" viewBox="0 0 24 25" fill="none" xmlns="http://www.w3.org/2000/svg">
<path d="M22.265 2.9279C21.9803 2.69106 21.6367 2.53585 21.2708 2.4788C20.9048 2.42174 20.5303 2.46498 20.187 2.6039L2.266 9.8389C1.88285 9.9966 1.55671 10.2671 1.33084 10.6144C1.10497 10.9618 0.990056 11.3696 1.00134 11.7838C1.01262 12.1979 1.14957 12.5989 1.39401 12.9334C1.63845 13.268 1.97883 13.5203 2.37 13.6569L5.995 14.9179L8.015 21.5999C8.04268 21.6891 8.08274 21.7739 8.134 21.8519C8.14199 21.8639 8.153 21.8719 8.161 21.8849C8.21993 21.9669 8.29109 22.0394 8.37199 22.0999C8.39458 22.1176 8.41794 22.1343 8.442 22.1499C8.53672 22.2128 8.64159 22.2588 8.752 22.2859L8.765 22.2869L8.771 22.2899C8.83783 22.3033 8.90583 22.31 8.974 22.3099L8.99199 22.3069C9.09441 22.3052 9.19594 22.2877 9.293 22.2549C9.316 22.2469 9.335 22.2349 9.357 22.2249C9.42959 22.1951 9.49841 22.1569 9.562 22.1109C9.61265 22.0679 9.66331 22.0249 9.71399 21.9819L12.416 18.9989L16.446 22.1209C16.8007 22.3972 17.2374 22.5474 17.687 22.5479C18.1582 22.5474 18.615 22.3848 18.9806 22.0875C19.3462 21.7901 19.5984 21.3761 19.695 20.9149L22.958 4.8979C23.0318 4.53756 23.0063 4.16394 22.8842 3.81696C22.7622 3.46998 22.5481 3.16268 22.265 2.9279ZM9.37 15.2359C9.2315 15.3741 9.13688 15.5501 9.09799 15.7419L8.788 17.2459L8.00399 14.6529L12.069 12.5359L9.37 15.2359ZM17.672 20.5399L12.909 16.8499C12.7097 16.6961 12.4598 16.6231 12.209 16.6453C11.9583 16.6675 11.7251 16.7834 11.556 16.9699L10.69 17.9249L10.996 16.4379L18.079 9.3549C18.2471 9.18582 18.3492 8.96226 18.3669 8.72452C18.3847 8.48679 18.317 8.25053 18.1759 8.05833C18.0349 7.86613 17.8298 7.73064 17.5977 7.67629C17.3656 7.62194 17.1217 7.6523 16.91 7.7619L6.745 13.0539L3.02 11.6909L20.999 4.4999L17.672 20.5399Z" fill="#111111"/>
</svg>
