<svg width="24" height="25" viewBox="0 0 24 25" fill="none" xmlns="http://www.w3.org/2000/svg">
<path d="M17.434 21.008L16.472 18.155C16.4268 18.0208 16.3537 17.8976 16.2574 17.7938C16.1611 17.6899 16.0438 17.6077 15.9133 17.5526C15.7829 17.4975 15.6422 17.4707 15.5006 17.4741C15.359 17.4774 15.2197 17.5108 15.092 17.572C14.7058 17.7209 14.2976 17.805 13.884 17.821C13.6511 17.8506 13.4156 17.7917 13.224 17.656C13.0493 17.4244 12.9644 17.1374 12.985 16.848V12.5H16.002C16.2672 12.5 16.5216 12.3946 16.7091 12.2071C16.8966 12.0196 17.002 11.7652 17.002 11.5V7.595C17.002 7.32978 16.8966 7.07543 16.7091 6.88789C16.5216 6.70036 16.2672 6.595 16.002 6.595H13V2.5C13 2.23478 12.8946 1.98043 12.7071 1.79289C12.5196 1.60536 12.2652 1.5 12 1.5H9.07C8.78525 1.50147 8.5112 1.60871 8.30109 1.8009C8.09097 1.99309 7.95978 2.25651 7.933 2.54C7.89322 3.5376 7.5611 4.50151 6.97794 5.3119C6.39478 6.12228 5.58629 6.74338 4.653 7.098C4.45935 7.16754 4.29187 7.29513 4.1734 7.46335C4.05493 7.63157 3.99123 7.83225 3.991 8.038V11.623C3.991 11.8882 4.09635 12.1426 4.28389 12.3301C4.47143 12.5176 4.72578 12.623 4.991 12.623H6.016V17.158C6.03275 18.8403 6.71012 20.4486 7.902 21.636C8.5671 22.2598 9.34916 22.7457 10.2031 23.0656C11.0569 23.3855 11.9657 23.5332 12.877 23.5H13.04C14.586 23.474 16.658 22.852 17.313 21.892C17.4 21.7642 17.4562 21.6179 17.477 21.4646C17.4978 21.3114 17.4828 21.1554 17.433 21.009L17.434 21.008ZM13.007 21.498C12.3344 21.5515 11.658 21.4646 11.0207 21.2429C10.3834 21.0212 9.79917 20.6694 9.305 20.21C8.49103 19.4014 8.02769 18.3052 8.015 17.158V11.623C8.015 11.3578 7.90964 11.1034 7.7221 10.9159C7.53457 10.7284 7.28021 10.623 7.015 10.623H5.992V8.706C7.00187 8.21157 7.87678 7.47963 8.54175 6.57292C9.20672 5.66621 9.6419 4.61178 9.81 3.5H11V7.595C11 7.86022 11.1054 8.11457 11.2929 8.30211C11.4804 8.48964 11.7348 8.595 12 8.595H15.002V10.5H11.985C11.7198 10.5 11.4654 10.6054 11.2779 10.7929C11.0904 10.9804 10.985 11.2348 10.985 11.5V16.865C10.9713 17.2759 11.0401 17.6854 11.1873 18.0693C11.3345 18.4531 11.5571 18.8036 11.842 19.1C12.1229 19.358 12.4541 19.5551 12.8148 19.679C13.1755 19.8029 13.5579 19.8509 13.938 19.82C14.2562 19.8079 14.5729 19.7701 14.885 19.707L15.31 20.967C14.5859 21.2973 13.8026 21.4779 13.007 21.498Z" fill="#111111"/>
</svg>
