<svg width="24" height="25" viewBox="0 0 24 25" fill="none" xmlns="http://www.w3.org/2000/svg">
<path d="M22.991 4.44988C22.991 4.27338 22.9442 4.10003 22.8555 3.94744C22.7668 3.79485 22.6393 3.66846 22.4859 3.58111C22.3325 3.49375 22.1588 3.44855 21.9823 3.45009C21.8058 3.45164 21.6328 3.49986 21.481 3.58988C20.8954 3.93869 20.2649 4.20583 19.607 4.38388C18.668 3.57816 17.4703 3.13729 16.233 3.14188C14.8757 3.14351 13.5722 3.67251 12.5977 4.6172C11.6231 5.56189 11.0538 6.84832 11.01 8.20488C8.33379 7.77821 5.90826 6.38141 4.19599 4.28088C4.09282 4.15585 3.96112 4.05744 3.81198 3.99392C3.66284 3.9304 3.50063 3.90364 3.33899 3.91588C3.17739 3.92926 3.02147 3.98177 2.88471 4.06888C2.74794 4.15599 2.63443 4.27509 2.55399 4.41588C2.14151 5.13578 1.90463 5.94281 1.86258 6.77144C1.82053 7.60006 1.9745 8.42693 2.31199 9.18488L2.30999 9.18588C2.15797 9.27929 2.03252 9.4102 1.94566 9.56605C1.85881 9.7219 1.81347 9.89746 1.81399 10.0759C1.81239 10.2227 1.82141 10.3694 1.84099 10.5149C1.94311 11.7729 2.50062 12.9505 3.40899 13.8269C3.34735 13.9444 3.30976 14.073 3.29843 14.2052C3.2871 14.3374 3.30225 14.4706 3.34299 14.5969C3.73897 15.831 4.58125 16.873 5.70499 17.5189C4.56316 17.9603 3.33029 18.1142 2.11499 17.9669C1.89016 17.9389 1.6625 17.9881 1.4693 18.1065C1.27609 18.2248 1.1288 18.4052 1.05153 18.6182C0.974263 18.8312 0.971607 19.0641 1.044 19.2788C1.11639 19.4934 1.25953 19.6772 1.44999 19.7999C3.5402 21.1459 5.97387 21.8614 8.45999 21.8609C11.2792 21.8926 14.0299 20.9918 16.2842 19.2985C18.5385 17.6052 20.17 15.2143 20.925 12.4979C21.2779 11.3146 21.4581 10.0866 21.46 8.85188L21.459 8.65188C21.9811 8.08868 22.3856 7.42691 22.6487 6.70536C22.9118 5.98381 23.0281 5.217 22.991 4.44988ZM19.685 7.66188C19.5196 7.8571 19.4358 8.1085 19.451 8.36388C19.461 8.52888 19.46 8.69488 19.46 8.85188C19.4579 9.89506 19.305 10.9325 19.006 11.9319C18.3897 14.2435 17.0154 16.2814 15.1033 17.7192C13.1912 19.157 10.8518 19.9115 8.45999 19.8619C7.60112 19.862 6.74522 19.761 5.90999 19.5609C6.9753 19.2173 7.97135 18.6878 8.85199 17.9969C9.01438 17.8692 9.13324 17.6944 9.19226 17.4964C9.25127 17.2985 9.24752 17.0871 9.18154 16.8913C9.11556 16.6956 8.99059 16.5251 8.82378 16.4032C8.65698 16.2814 8.45653 16.2142 8.24999 16.2109C7.41871 16.1979 6.62495 15.8627 6.03599 15.2759C6.18532 15.2479 6.33366 15.2129 6.48099 15.1709C6.69702 15.1095 6.88608 14.9771 7.01773 14.7952C7.14937 14.6132 7.21594 14.3922 7.2067 14.1679C7.19746 13.9435 7.11296 13.7287 6.9668 13.5582C6.82064 13.3877 6.62133 13.2713 6.40099 13.2279C5.91848 13.1326 5.46446 12.9273 5.07422 12.6279C4.68398 12.3286 4.36805 11.9432 4.15099 11.5019C4.33174 11.5266 4.51365 11.5419 4.69599 11.5479C4.91267 11.5514 5.12486 11.4859 5.30178 11.3608C5.47871 11.2356 5.61118 11.0574 5.67999 10.8519C5.74604 10.6446 5.74272 10.4215 5.67054 10.2163C5.59836 10.0112 5.46125 9.83511 5.27999 9.71488C4.83993 9.42195 4.4794 9.02442 4.2307 8.55793C3.98201 8.09143 3.85292 7.57053 3.85499 7.04188C3.85499 6.97588 3.85699 6.90888 3.86099 6.84388C6.10245 8.93451 9.0099 10.1669 12.071 10.3239C12.2256 10.3297 12.3794 10.3004 12.521 10.238C12.6625 10.1756 12.788 10.0819 12.888 9.96388C12.987 9.84513 13.0572 9.70503 13.0929 9.5546C13.1286 9.40416 13.129 9.24749 13.094 9.09688C13.0367 8.85809 13.0075 8.61344 13.007 8.36788C13.008 7.51262 13.3483 6.69269 13.953 6.08792C14.5578 5.48316 15.3777 5.14294 16.233 5.14188C16.6731 5.14058 17.1088 5.23055 17.5124 5.40611C17.916 5.58168 18.2788 5.83901 18.578 6.16188C18.6933 6.286 18.8385 6.37855 18.9997 6.43071C19.1609 6.48287 19.3328 6.49291 19.499 6.45988C19.9098 6.38003 20.3147 6.27245 20.711 6.13788C20.4408 6.6907 20.0955 7.20355 19.685 7.66188Z" fill="#111111"/>
</svg>
